<?xml version="1.0" standalone="no"?>
<!DOCTYPE svg PUBLIC "-//W3C//DTD SVG 20010904//EN"
 "http://www.w3.org/TR/2001/REC-SVG-20010904/DTD/svg10.dtd">
<svg version="1.0" xmlns="http://www.w3.org/2000/svg"
 width="1024.000000pt" height="1024.000000pt" viewBox="0 0 1024.000000 1024.000000"
 preserveAspectRatio="xMidYMid meet">
<metadata>
Created by potrace 1.14, written by Peter Selinger 2001-2017
</metadata>
<g transform="translate(0.000000,1024.000000) scale(0.100000,-0.100000)"
fill="#000000" stroke="none">
<path d="M2360 9422 c0 -623 3 -821 12 -830 9 -9 174 -12 680 -12 661 0 668 0
668 -20 0 -11 5 -20 10 -20 6 0 10 -11 10 -24 0 -14 5 -28 10 -31 6 -3 10 -15
10 -26 0 -10 5 -19 10 -19 6 0 10 -13 10 -30 0 -16 5 -30 10 -30 6 0 10 -11
10 -24 0 -14 5 -28 10 -31 6 -3 10 -24 10 -45 0 -21 5 -42 10 -45 6 -3 10 -17
10 -31 0 -13 5 -24 10 -24 6 0 10 -15 10 -34 0 -19 5 -38 10 -41 6 -3 10 -15
10 -26 0 -10 5 -19 10 -19 6 0 10 -13 10 -30 0 -16 3 -30 8 -30 10 0 32 -74
32 -110 0 -16 5 -30 10 -30 6 0 10 -13 10 -30 0 -16 5 -30 10 -30 6 0 10 -11
10 -24 0 -14 5 -28 10 -31 6 -3 10 -15 10 -26 0 -10 5 -19 10 -19 6 0 10 -13
10 -30 0 -16 3 -30 8 -30 12 0 32 -76 32 -120 0 -22 5 -40 10 -40 6 0 10 -13
10 -30 0 -16 5 -30 10 -30 6 0 10 -9 10 -20 0 -11 5 -20 10 -20 6 0 10 -13 10
-30 0 -16 5 -30 10 -30 6 0 10 -13 10 -30 0 -16 5 -30 10 -30 6 0 10 -9 10
-19 0 -11 5 -23 10 -26 6 -3 10 -17 10 -31 0 -13 5 -24 10 -24 6 0 10 -19 10
-43 0 -24 3 -47 7 -51 11 -11 33 -79 33 -103 0 -13 5 -23 10 -23 18 0 11 -56
-10 -75 -11 -10 -20 -24 -20 -32 0 -7 -4 -13 -10 -13 -5 0 -10 -9 -10 -20 0
-11 -9 -25 -20 -32 -11 -7 -20 -21 -20 -30 0 -10 -4 -18 -10 -18 -5 0 -10 -8
-10 -18 0 -10 -9 -24 -20 -32 -11 -8 -20 -20 -20 -26 0 -6 -7 -17 -15 -24 -8
-7 -25 -32 -37 -56 -12 -24 -27 -44 -35 -44 -7 0 -13 -9 -13 -20 0 -11 -4 -20
-10 -20 -5 0 -10 -8 -10 -18 0 -10 -9 -24 -20 -32 -11 -8 -20 -22 -20 -32 0
-10 -4 -18 -10 -18 -5 0 -10 -8 -10 -18 0 -10 -9 -24 -20 -32 -11 -8 -20 -21
-20 -30 0 -8 -8 -20 -18 -26 -10 -6 -29 -33 -42 -60 -14 -27 -33 -56 -42 -65
-10 -9 -18 -23 -18 -30 0 -8 -9 -21 -20 -29 -11 -8 -20 -22 -20 -32 0 -10 -4
-18 -10 -18 -5 0 -10 -8 -10 -18 0 -10 -9 -24 -20 -32 -11 -8 -20 -20 -20 -28
0 -7 -12 -25 -26 -40 -14 -15 -34 -45 -44 -68 -10 -22 -26 -47 -35 -54 -8 -7
-15 -18 -15 -24 0 -6 -9 -18 -20 -26 -11 -8 -20 -22 -20 -32 0 -10 -4 -18 -10
-18 -5 0 -10 -8 -10 -18 0 -9 -9 -23 -20 -30 -11 -7 -20 -21 -20 -32 0 -11 -4
-20 -10 -20 -5 0 -10 -5 -10 -11 0 -6 -18 -33 -40 -59 -22 -26 -40 -53 -40
-59 0 -6 -4 -11 -10 -11 -5 0 -10 -9 -10 -20 0 -11 -4 -20 -10 -20 -5 0 -10
-8 -10 -18 0 -10 -9 -24 -20 -32 -11 -8 -20 -21 -20 -29 0 -7 -8 -21 -18 -30
-10 -9 -25 -32 -35 -51 -9 -19 -28 -47 -42 -62 -14 -15 -25 -33 -25 -40 0 -8
-9 -20 -20 -28 -11 -8 -20 -22 -20 -32 0 -10 -4 -18 -10 -18 -5 0 -10 -8 -10
-18 0 -10 -9 -24 -20 -32 -11 -8 -20 -21 -20 -30 0 -9 -9 -22 -20 -30 -11 -8
-20 -19 -20 -26 0 -6 -9 -19 -20 -29 -11 -10 -20 -26 -20 -35 0 -9 -9 -25 -20
-35 -11 -10 -20 -23 -20 -29 0 -7 -9 -18 -20 -26 -11 -8 -20 -21 -20 -30 0 -9
-9 -22 -20 -30 -11 -8 -20 -22 -20 -32 0 -10 -4 -18 -10 -18 -5 0 -10 -9 -10
-20 0 -11 -4 -20 -10 -20 -5 0 -10 -7 -10 -15 0 -8 -18 -34 -40 -57 -22 -24
-40 -49 -40 -55 0 -7 -4 -13 -10 -13 -5 0 -10 -8 -10 -18 0 -10 -9 -24 -20
-32 -11 -8 -20 -22 -20 -32 0 -10 -4 -18 -10 -18 -5 0 -10 -7 -10 -16 0 -9 -8
-24 -18 -33 -10 -9 -26 -32 -35 -52 -9 -20 -23 -42 -32 -49 -8 -7 -15 -18 -15
-26 0 -7 -9 -18 -20 -24 -11 -6 -20 -15 -20 -21 0 -5 -9 -19 -20 -31 -11 -12
-20 -31 -20 -43 0 -11 -9 -27 -20 -35 -11 -8 -20 -21 -20 -30 0 -9 -9 -22 -20
-30 -11 -8 -20 -22 -20 -31 0 -9 -7 -19 -15 -22 -8 -3 -23 -26 -35 -51 -11
-25 -31 -56 -45 -70 -14 -14 -25 -31 -25 -38 0 -8 -9 -20 -20 -28 -11 -8 -20
-22 -20 -32 0 -10 -4 -18 -10 -18 -5 0 -10 -8 -10 -18 0 -10 -9 -24 -20 -32
-11 -8 -20 -21 -20 -29 0 -7 -8 -21 -19 -30 -10 -9 -31 -40 -46 -69 -15 -30
-34 -56 -42 -59 -7 -3 -13 -13 -13 -22 0 -9 -9 -23 -20 -31 -11 -8 -20 -21
-20 -30 0 -9 -9 -22 -20 -30 -11 -8 -20 -24 -20 -35 0 -12 -9 -31 -20 -43 -11
-12 -20 -24 -20 -28 0 -4 -7 -14 -15 -23 -27 -29 -60 -76 -75 -106 -8 -16 -23
-37 -32 -46 -10 -9 -18 -24 -18 -33 0 -9 -4 -16 -10 -16 -5 0 -10 -8 -10 -18
0 -10 -9 -24 -20 -32 -11 -8 -20 -22 -20 -32 0 -10 -4 -18 -10 -18 -5 0 -10
-6 -10 -13 0 -6 -18 -32 -40 -56 -22 -24 -40 -50 -40 -57 0 -8 -4 -14 -10 -14
-5 0 -10 -7 -10 -15 0 -19 -20 -55 -42 -76 -10 -9 -18 -23 -18 -30 0 -8 -9
-21 -20 -29 -11 -8 -20 -19 -20 -26 0 -6 -9 -19 -20 -29 -11 -10 -20 -26 -20
-37 0 -10 -9 -27 -20 -38 -11 -11 -20 -24 -20 -28 0 -4 -9 -14 -20 -22 -11 -8
-20 -20 -20 -28 0 -7 -9 -22 -20 -34 -11 -12 -20 -28 -20 -35 0 -7 -4 -13 -10
-13 -5 0 -10 -8 -10 -18 0 -10 -9 -24 -20 -32 -11 -8 -20 -20 -20 -28 0 -7
-13 -27 -30 -45 -16 -18 -30 -40 -30 -49 0 -10 -4 -18 -10 -18 -5 0 -10 -6
-10 -13 0 -7 -9 -19 -20 -27 -11 -8 -20 -21 -20 -30 0 -9 -9 -22 -20 -30 -11
-8 -20 -22 -20 -32 0 -10 -4 -18 -10 -18 -5 0 -10 -9 -10 -20 0 -11 -4 -20
-10 -20 -5 0 -10 -6 -10 -13 0 -7 -18 -33 -40 -57 -22 -25 -40 -51 -40 -57 0
-7 -4 -13 -10 -13 -5 0 -10 -9 -10 -20 0 -11 -9 -25 -20 -32 -11 -7 -20 -21
-20 -30 0 -10 -4 -18 -10 -18 -5 0 -10 -7 -10 -16 0 -9 -8 -24 -18 -33 -9 -9
-28 -37 -41 -64 -13 -26 -28 -47 -33 -47 -4 0 -8 -7 -8 -15 0 -8 -9 -19 -20
-25 -11 -6 -20 -17 -20 -25 0 -8 -4 -15 -10 -15 -5 0 -10 -7 -10 -15 0 -9 -9
-25 -20 -37 -11 -12 -20 -28 -20 -35 0 -7 -4 -13 -10 -13 -5 0 -10 -8 -10 -18
0 -10 -9 -24 -20 -32 -11 -8 -20 -21 -20 -29 0 -7 -8 -21 -19 -30 -10 -9 -29
-38 -41 -65 -13 -26 -31 -53 -42 -59 -10 -7 -18 -19 -18 -27 0 -9 -9 -22 -20
-30 -11 -8 -20 -22 -20 -32 0 -10 -4 -18 -10 -18 -5 0 -10 -8 -10 -18 0 -10
-9 -24 -20 -32 -11 -8 -20 -22 -20 -32 0 -10 -4 -18 -10 -18 -5 0 -10 -7 -10
-15 0 -7 -6 -18 -14 -22 -8 -4 -24 -27 -36 -50 -12 -23 -28 -47 -36 -54 -8 -6
-14 -17 -14 -23 0 -6 -9 -18 -20 -26 -11 -8 -20 -22 -20 -32 0 -10 -4 -18 -10
-18 -5 0 -10 -9 -10 -20 0 -11 -4 -20 -10 -20 -5 0 -10 -6 -10 -13 0 -7 -9
-23 -20 -35 -11 -12 -20 -27 -20 -34 0 -7 -9 -19 -20 -26 -11 -7 -20 -21 -20
-32 0 -20 8 -20 1019 -20 l1019 0 14 30 c7 17 16 30 20 30 5 0 8 8 8 18 0 10
9 24 20 32 11 8 20 20 20 26 0 7 14 26 30 44 17 18 30 38 30 46 0 8 14 27 30
42 17 16 30 33 30 38 0 5 9 16 20 24 11 8 20 22 20 32 0 10 5 18 10 18 6 0 10
8 10 18 0 10 9 24 20 32 11 8 20 21 20 30 0 9 9 22 20 30 11 8 20 20 20 26 0
6 7 17 15 24 8 7 25 32 37 56 12 24 27 44 35 44 7 0 13 8 13 18 0 10 9 24 20
32 11 8 20 22 20 32 0 10 5 18 10 18 6 0 10 6 10 14 0 7 14 27 30 44 17 18 30
38 30 45 0 7 9 19 20 27 11 8 20 19 20 26 0 6 9 19 20 29 11 10 20 24 20 30 0
7 14 27 30 45 17 18 30 37 30 44 0 6 9 18 20 26 11 8 20 22 20 32 0 10 5 18
10 18 6 0 10 8 10 18 0 10 9 24 20 32 11 8 20 21 20 30 0 9 9 22 20 30 11 8
20 19 20 26 0 6 9 19 20 29 11 10 20 23 20 29 0 6 18 30 40 54 22 23 40 48 40
55 0 7 9 19 20 27 11 8 20 22 20 32 0 10 5 18 10 18 6 0 10 8 10 18 0 10 9 24
20 32 11 8 20 21 20 29 0 7 9 21 20 31 11 9 26 32 34 51 8 19 31 51 50 72 20
20 36 43 36 50 0 7 9 19 20 27 11 8 20 21 20 30 0 9 9 22 20 30 11 8 20 21 20
30 0 9 9 22 20 30 11 8 20 21 20 30 0 8 8 20 18 27 11 6 28 31 39 55 12 23 35
58 52 75 17 18 31 39 31 46 0 7 9 19 20 27 11 8 20 22 20 32 0 10 5 18 10 18
6 0 10 8 10 18 0 10 9 24 20 32 11 8 20 20 20 26 0 7 13 26 29 43 15 17 35 45
44 63 9 18 32 50 51 71 20 20 36 44 36 52 0 8 5 15 10 15 6 0 10 8 10 18 0 10
9 24 20 32 11 8 20 21 20 30 0 9 9 22 20 30 11 8 20 22 20 32 0 10 6 18 13 18
7 0 21 17 30 38 9 21 26 48 37 59 11 12 20 26 20 30 0 5 9 15 20 23 11 8 20
21 20 30 0 9 9 22 20 30 11 8 20 21 20 30 0 9 9 22 20 30 11 8 20 21 20 30 0
9 9 22 20 30 11 8 20 20 20 26 0 6 7 17 15 24 8 7 25 32 37 56 12 24 27 44 35
44 7 0 13 8 13 18 0 10 9 24 20 32 11 8 20 22 20 32 0 10 5 18 10 18 6 0 10 8
10 18 0 10 9 24 20 32 11 8 20 21 20 30 0 9 9 22 20 30 11 8 20 19 20 26 0 6
9 19 20 29 11 10 20 23 20 29 0 6 18 30 40 54 22 23 40 48 40 55 0 7 9 19 20
27 11 8 20 22 20 32 0 10 5 18 10 18 6 0 10 8 10 18 0 10 9 24 20 32 11 8 20
21 20 30 0 9 9 22 20 30 11 8 20 20 20 27 0 6 6 16 13 20 8 4 24 29 37 56 13
26 29 47 37 47 7 0 13 8 13 18 0 10 9 24 20 32 11 8 20 21 20 30 0 9 9 22 20
30 11 8 20 21 20 30 0 9 9 22 20 30 11 8 20 21 20 30 0 9 9 22 20 30 11 8 20
20 20 27 0 7 5 13 10 13 6 0 10 8 10 18 1 25 48 75 65 68 8 -3 15 -17 15 -31
0 -14 5 -25 10 -25 6 0 10 -9 10 -20 0 -11 5 -20 10 -20 6 0 10 -14 10 -30 0
-17 4 -38 9 -48 5 -9 16 -32 23 -50 7 -17 16 -32 20 -32 5 0 8 -13 8 -30 0
-16 5 -30 10 -30 6 0 10 -9 10 -20 0 -11 3 -20 8 -20 9 0 32 -72 32 -100 0
-11 5 -20 10 -20 6 0 10 -13 10 -30 0 -16 5 -30 10 -30 6 0 10 -9 10 -20 0
-11 5 -20 10 -20 6 0 10 -6 10 -13 0 -18 24 -67 33 -67 4 0 7 -13 7 -30 0 -16
5 -30 10 -30 6 0 10 -13 10 -30 0 -16 9 -44 20 -62 11 -18 20 -41 20 -50 0
-10 5 -18 10 -18 6 0 10 -9 10 -20 0 -11 5 -20 10 -20 6 0 10 -11 10 -25 0
-14 9 -35 20 -47 11 -12 20 -32 20 -45 0 -13 5 -23 10 -23 6 0 10 -18 10 -40
0 -22 3 -40 8 -40 8 0 32 -49 32 -67 0 -7 5 -13 10 -13 6 0 10 -13 10 -30 0
-16 5 -30 10 -30 6 0 10 -9 10 -20 0 -11 5 -20 10 -20 6 0 10 -11 10 -24 0
-14 5 -28 10 -31 6 -3 10 -16 10 -29 0 -25 21 -76 33 -76 4 0 7 -13 7 -30 0
-16 5 -30 10 -30 6 0 10 -9 10 -20 0 -11 5 -20 10 -20 6 0 10 -7 10 -15 0 -8
9 -30 20 -50 11 -20 20 -49 20 -65 0 -17 5 -30 10 -30 6 0 10 -10 10 -22 0
-13 9 -34 20 -48 11 -14 20 -35 20 -47 0 -13 5 -23 10 -23 6 0 10 -9 10 -20 0
-11 5 -20 10 -20 6 0 10 -11 10 -24 0 -14 5 -28 10 -31 6 -3 10 -19 10 -35 0
-16 5 -32 10 -35 6 -3 10 -17 10 -31 0 -13 5 -24 10 -24 6 0 10 -9 10 -20 0
-11 5 -20 10 -20 6 0 10 -10 10 -22 0 -13 9 -34 20 -48 11 -14 20 -35 20 -47
0 -13 5 -23 10 -23 6 0 10 -13 10 -30 0 -16 9 -45 20 -65 11 -20 20 -42 20
-50 0 -8 5 -15 10 -15 6 0 10 -9 10 -20 0 -11 5 -20 10 -20 6 0 10 -13 10 -30
0 -16 3 -30 8 -30 4 0 13 -15 20 -32 7 -18 18 -41 23 -50 5 -10 9 -31 9 -48 0
-16 5 -30 10 -30 6 0 10 -9 10 -20 0 -11 5 -20 10 -20 6 0 10 -11 10 -24 0
-14 5 -28 10 -31 6 -3 10 -15 10 -26 0 -10 5 -19 10 -19 6 0 10 -9 10 -20 0
-11 5 -20 10 -20 6 0 10 -11 10 -24 0 -14 5 -28 10 -31 6 -3 10 -17 10 -30 0
-28 20 -75 32 -75 4 0 8 -13 8 -30 0 -16 5 -30 10 -30 6 0 10 -9 10 -20 0 -11
5 -20 10 -20 6 0 10 -8 10 -17 0 -10 9 -33 20 -51 11 -18 20 -46 20 -62 0 -17
5 -30 10 -30 6 0 10 -13 10 -30 0 -16 3 -30 8 -30 8 0 32 -49 32 -67 0 -7 5
-13 10 -13 6 0 10 -9 10 -20 0 -11 5 -20 10 -20 6 0 10 -13 10 -30 0 -16 5
-30 10 -30 6 0 10 -9 10 -20 0 -28 23 -100 32 -100 5 0 8 -9 8 -20 0 -11 5
-20 10 -20 6 0 10 -12 10 -26 0 -14 7 -32 15 -41 9 -8 19 -28 22 -44 3 -16 9
-29 14 -29 5 0 9 -18 9 -40 0 -22 5 -40 10 -40 6 0 10 -9 10 -20 0 -11 5 -20
10 -20 6 0 10 -10 10 -23 0 -13 9 -33 20 -45 11 -12 20 -33 20 -47 0 -14 5
-25 10 -25 6 0 10 -9 10 -20 0 -11 3 -20 8 -20 9 0 32 -72 32 -100 0 -11 5
-20 10 -20 6 0 10 -9 10 -20 0 -11 5 -20 10 -20 6 0 10 -11 10 -25 0 -14 9
-35 20 -47 11 -12 20 -32 20 -44 0 -13 5 -26 10 -29 6 -3 10 -17 10 -31 0 -13
5 -24 10 -24 6 0 10 -13 10 -30 0 -16 9 -44 20 -62 11 -18 20 -41 20 -50 0
-10 5 -18 10 -18 6 0 10 -9 10 -20 0 -11 5 -20 10 -20 6 0 10 -8 10 -17 0 -10
10 -37 22 -60 19 -35 28 -43 50 -43 16 0 28 5 28 10 0 6 14 10 30 10 17 0 30
5 30 10 0 6 14 10 30 10 17 0 30 5 30 10 0 6 13 10 29 10 17 0 33 5 36 10 3 6
24 10 45 10 21 0 42 4 45 10 3 5 15 10 26 10 10 0 19 5 19 10 0 6 14 10 30 10
17 0 30 5 30 10 0 6 13 10 29 10 17 0 33 5 36 10 3 6 17 10 31 10 13 0 24 5
24 10 0 6 13 10 29 10 17 0 33 5 36 10 3 6 17 10 31 10 31 0 104 23 104 32 0
5 14 8 30 8 17 0 30 5 30 10 0 6 13 10 29 10 17 0 33 5 36 10 3 6 17 10 31 10
13 0 24 5 24 10 0 6 14 10 30 10 17 0 30 5 30 10 0 6 18 10 39 10 22 0 43 5
46 10 3 6 17 10 31 10 13 0 24 5 24 10 0 6 14 10 30 10 17 0 30 5 30 10 0 6
13 10 29 10 17 0 33 5 36 10 3 6 17 10 31 10 13 0 24 5 24 10 0 6 11 10 24 10
14 0 28 5 31 10 3 5 24 10 45 10 21 0 42 5 45 10 3 6 17 10 31 10 13 0 24 5
24 10 0 6 14 10 30 10 17 0 30 5 30 10 0 6 14 10 30 10 17 0 30 5 30 10 0 6
14 10 30 10 17 0 30 5 30 10 0 6 11 10 24 10 14 0 28 5 31 10 3 6 24 10 46 10
21 0 39 5 39 10 0 6 14 10 30 10 17 0 30 5 30 10 0 6 11 10 24 10 14 0 28 5
31 10 3 5 19 10 36 10 16 0 29 5 29 10 0 6 14 10 30 10 17 0 30 5 30 10 0 6
11 10 24 10 14 0 28 5 31 10 3 6 24 10 46 10 21 0 39 5 39 10 0 6 14 10 30 10
17 0 30 5 30 10 0 6 14 10 30 10 17 0 30 5 30 10 0 6 14 10 30 10 17 0 30 5
30 10 0 6 14 10 30 10 17 0 30 3 30 8 0 10 74 32 110 32 16 0 30 5 30 10 0 6
14 10 30 10 17 0 30 5 30 10 0 6 14 10 30 10 17 0 30 5 30 10 0 6 14 10 30 10
17 0 30 5 30 10 0 6 14 10 30 10 17 0 30 3 30 8 0 9 73 32 104 32 14 0 28 4
31 10 3 5 19 10 36 10 27 0 29 2 29 40 0 22 -4 40 -10 40 -5 0 -10 14 -10 30
0 17 -4 30 -10 30 -5 0 -10 14 -10 30 0 17 -4 30 -10 30 -5 0 -10 11 -10 24 0
14 -4 28 -10 31 -5 3 -10 24 -10 46 0 21 -4 39 -10 39 -5 0 -10 14 -10 30 0
17 -4 30 -10 30 -5 0 -10 11 -10 24 0 14 -4 28 -10 31 -5 3 -10 15 -10 26 0
10 -4 19 -10 19 -5 0 -10 14 -10 30 0 17 -4 30 -10 30 -5 0 -10 11 -10 24 0
14 -4 28 -10 31 -5 3 -10 28 -10 56 0 27 -4 49 -10 49 -5 0 -10 14 -10 30 0
17 -4 30 -10 30 -5 0 -10 11 -10 24 0 14 -4 28 -10 31 -5 3 -10 15 -10 26 0
10 -4 19 -10 19 -5 0 -10 14 -10 30 0 17 -3 30 -8 30 -10 0 -32 74 -32 110 0
16 -4 30 -10 30 -5 0 -10 14 -10 30 0 17 -4 30 -10 30 -5 0 -10 14 -10 30 0
17 -4 30 -10 30 -5 0 -10 14 -10 30 0 17 -4 30 -10 30 -5 0 -10 14 -10 30 0
17 -4 30 -10 30 -5 0 -10 9 -10 19 0 11 -4 23 -10 26 -5 3 -10 26 -10 51 0 24
-4 44 -9 44 -5 0 -11 12 -13 28 -3 23 -8 27 -40 30 -22 2 -38 -1 -38 -7 0 -6
-9 -11 -19 -11 -11 0 -23 -4 -26 -10 -3 -6 -17 -10 -31 -10 -13 0 -24 -4 -24
-10 0 -5 -13 -10 -29 -10 -17 0 -33 -5 -36 -10 -3 -5 -26 -10 -51 -10 -24 0
-44 -4 -44 -10 0 -5 -13 -10 -30 -10 -16 0 -30 -4 -30 -10 0 -5 -11 -10 -24
-10 -14 0 -28 -4 -31 -10 -3 -5 -15 -10 -26 -10 -10 0 -19 -4 -19 -10 0 -5
-18 -10 -40 -10 -22 0 -40 -4 -40 -10 0 -5 -11 -10 -24 -10 -14 0 -28 -4 -31
-10 -3 -5 -24 -10 -46 -10 -21 0 -39 -4 -39 -10 0 -5 -13 -10 -30 -10 -16 0
-30 -4 -30 -10 0 -5 -13 -10 -29 -10 -17 0 -33 -4 -36 -10 -3 -5 -17 -10 -31
-10 -13 0 -24 -4 -24 -10 0 -5 -13 -10 -30 -10 -16 0 -30 -3 -30 -8 0 -11 -75
-32 -114 -32 -19 0 -38 -5 -41 -10 -3 -6 -17 -10 -30 -10 -13 0 -27 -5 -30
-10 -3 -6 -15 -10 -26 -10 -10 0 -19 -4 -19 -10 0 -5 -13 -10 -30 -10 -16 0
-30 -4 -30 -10 0 -5 -15 -10 -33 -10 -18 0 -37 -4 -42 -9 -6 -4 -22 -11 -37
-15 -21 -5 -28 -3 -28 9 0 8 -4 15 -10 15 -5 0 -10 14 -10 30 0 17 -4 30 -10
30 -5 0 -10 13 -10 30 0 16 -9 44 -20 62 -11 18 -20 41 -20 51 0 9 -4 17 -10
17 -5 0 -10 9 -10 20 0 11 -4 20 -10 20 -5 0 -10 14 -10 30 0 17 -4 30 -9 30
-5 0 -14 15 -21 32 -6 18 -16 41 -21 50 -5 10 -9 31 -9 48 0 16 -4 30 -10 30
-5 0 -10 9 -10 20 0 11 -4 20 -10 20 -5 0 -10 6 -10 13 0 18 -24 67 -32 67 -5
0 -8 14 -8 30 0 17 -4 30 -10 30 -5 0 -10 11 -10 24 0 14 -4 28 -10 31 -5 3
-10 16 -10 29 0 25 -21 76 -32 76 -5 0 -8 14 -8 30 0 17 -4 30 -10 30 -5 0
-10 9 -10 20 0 11 -4 20 -10 20 -5 0 -10 6 -10 13 0 18 -24 67 -32 67 -5 0 -8
18 -8 40 0 22 -4 40 -10 40 -5 0 -10 9 -10 20 0 11 -9 35 -20 55 -11 20 -20
42 -20 50 0 8 -4 15 -10 15 -5 0 -10 9 -10 20 0 11 -4 20 -10 20 -5 0 -10 11
-10 24 0 14 -4 28 -10 31 -5 3 -10 16 -10 29 0 25 -21 76 -32 76 -5 0 -8 14
-8 30 0 17 -4 30 -10 30 -5 0 -10 9 -10 20 0 11 -4 20 -10 20 -5 0 -10 6 -10
13 0 18 -24 67 -32 67 -5 0 -8 15 -8 34 0 19 -4 38 -10 41 -5 3 -10 15 -10 25
0 11 -9 35 -20 55 -11 20 -20 42 -20 50 0 8 -4 15 -10 15 -5 0 -10 9 -10 20 0
11 -4 20 -10 20 -5 0 -10 9 -10 20 0 11 -9 34 -20 52 -11 18 -20 50 -20 71 0
20 -4 37 -10 37 -5 0 -10 9 -10 20 0 11 -4 20 -10 20 -5 0 -10 11 -10 25 0 14
-9 35 -20 47 -11 12 -20 32 -20 45 0 13 -4 23 -10 23 -5 0 -10 9 -10 20 0 11
-4 20 -10 20 -5 0 -10 14 -10 30 0 17 -4 38 -9 48 -5 9 -16 32 -23 49 -7 18
-16 33 -20 33 -5 0 -8 14 -8 30 0 17 -4 30 -10 30 -5 0 -10 9 -10 20 0 11 -4
20 -10 20 -5 0 -10 9 -10 19 0 11 -4 23 -10 26 -5 3 -10 22 -10 41 0 19 -4 34
-10 34 -5 0 -10 9 -10 20 0 11 -4 20 -10 20 -5 0 -10 10 -10 23 0 12 -9 33
-20 47 -11 14 -20 35 -20 48 0 12 -4 22 -10 22 -5 0 -10 9 -10 20 0 11 -4 20
-10 20 -5 0 -10 14 -10 30 0 17 -4 38 -9 48 -5 9 -16 32 -23 49 -7 18 -16 33
-20 33 -5 0 -8 14 -8 30 0 17 -4 30 -10 30 -5 0 -10 9 -10 20 0 11 -4 20 -10
20 -5 0 -10 9 -10 19 0 11 -4 23 -10 26 -5 3 -10 22 -10 41 0 19 -4 34 -10 34
-5 0 -10 14 -10 30 0 17 -4 30 -10 30 -5 0 -10 9 -10 20 0 11 -4 20 -10 20 -5
0 -10 9 -10 20 0 11 -4 20 -10 20 -5 0 -10 9 -10 20 0 11 -4 20 -10 20 -5 0
-10 14 -10 30 0 17 -4 30 -10 30 -5 0 -10 15 -10 33 0 17 -9 43 -20 57 -11 14
-20 35 -20 48 0 12 -4 22 -10 22 -5 0 -10 9 -10 20 0 11 -4 20 -10 20 -5 0
-10 8 -10 18 0 9 -9 32 -20 50 -11 18 -20 41 -20 52 0 10 -4 22 -10 25 -5 3
-10 22 -10 41 0 19 -3 34 -7 34 -9 0 -33 49 -33 67 0 7 -4 13 -10 13 -5 0 -10
9 -10 20 0 11 -4 20 -10 20 -5 0 -10 14 -10 30 0 17 -3 30 -7 30 -12 0 -33 51
-33 76 0 13 -4 26 -10 29 -5 3 -10 17 -10 31 0 13 -4 24 -10 24 -5 0 -10 9
-10 20 0 11 -4 20 -10 20 -5 0 -10 11 -10 25 0 14 -9 35 -20 47 -11 12 -20 32
-20 45 0 13 -4 23 -10 23 -5 0 -10 18 -10 40 0 22 -4 40 -10 40 -5 0 -10 9
-10 20 0 11 -4 20 -10 20 -5 0 -10 9 -10 20 0 11 -4 20 -10 20 -5 0 -10 14
-10 30 0 17 -4 30 -10 30 -5 0 -10 9 -10 20 0 11 -3 20 -8 20 -7 0 -32 70 -32
93 0 18 -23 67 -32 67 -5 0 -8 14 -8 30 0 17 -4 30 -10 30 -5 0 -10 9 -10 20
0 11 -4 20 -10 20 -5 0 -10 9 -10 20 0 11 -4 20 -10 20 -5 0 -10 9 -10 20 0
11 -4 20 -10 20 -5 0 -10 15 -10 34 0 19 -4 38 -10 41 -5 3 -10 16 -10 29 0
12 -9 32 -20 44 -11 12 -20 33 -20 47 0 14 -4 25 -10 25 -5 0 -10 9 -10 20 0
11 -4 20 -10 20 -5 0 -10 9 -10 20 0 11 -9 34 -20 52 -11 18 -20 45 -20 61 0
15 -4 27 -10 27 -5 0 -10 14 -10 30 0 17 -4 30 -10 30 -5 0 -10 9 -10 20 0 11
-4 20 -10 20 -5 0 -10 6 -10 13 0 18 -24 67 -32 67 -5 0 -8 14 -8 30 0 17 -4
30 -10 30 -5 0 -10 13 -10 30 0 16 -9 44 -20 62 -11 18 -20 41 -20 51 0 9 -4
17 -10 17 -5 0 -10 14 -10 30 0 17 -4 30 -9 30 -5 0 -14 15 -21 33 -6 17 -16
40 -21 49 -5 10 -9 31 -9 48 0 16 -4 30 -10 30 -5 0 -10 9 -10 20 0 11 -4 20
-10 20 -5 0 -10 10 -10 23 0 12 -9 33 -20 47 -11 14 -20 35 -20 48 0 12 -4 22
-10 22 -5 0 -10 9 -10 20 0 11 -4 20 -10 20 -5 0 -10 15 -10 34 0 19 -4 38
-10 41 -5 3 -10 15 -10 26 0 10 -4 19 -10 19 -5 0 -10 9 -10 20 0 11 -4 20
-10 20 -5 0 -10 14 -10 30 0 17 -4 30 -9 30 -5 0 -14 15 -21 33 -6 17 -16 40
-21 49 -5 10 -9 31 -9 48 0 16 -4 30 -10 30 -5 0 -10 9 -10 20 0 11 -4 20 -10
20 -5 0 -10 10 -10 23 0 12 -9 33 -20 47 -11 14 -20 35 -20 48 0 12 -4 22 -10
22 -5 0 -10 9 -10 20 0 11 -3 20 -8 20 -7 0 -32 70 -32 93 0 18 -23 67 -32 67
-5 0 -8 14 -8 30 0 17 -4 30 -10 30 -5 0 -10 9 -10 20 0 11 -4 20 -10 20 -5 0
-10 9 -10 19 0 11 -4 23 -10 26 -5 3 -10 17 -10 30 0 13 -4 27 -10 30 -5 3
-10 17 -10 30 0 14 -9 40 -20 60 -11 20 -20 42 -20 50 0 8 -4 15 -10 15 -5 0
-10 9 -10 20 0 11 -4 20 -10 20 -5 0 -10 14 -10 30 0 17 -4 30 -8 30 -12 0
-32 47 -32 75 0 13 -4 27 -10 30 -5 3 -10 17 -10 31 0 13 -4 24 -10 24 -5 0
-10 9 -10 20 0 11 -4 20 -10 20 -5 0 -10 7 -10 15 0 8 -9 30 -20 50 -11 20
-20 44 -20 55 0 11 -4 20 -10 20 -5 0 -10 13 -10 30 0 16 -9 45 -20 65 -11 20
-20 42 -20 50 0 8 -4 15 -10 15 -5 0 -10 9 -10 20 0 11 -4 20 -10 20 -5 0 -10
14 -10 30 0 17 -3 30 -7 30 -9 0 -33 49 -33 67 0 11 -238 13 -1290 13 l-1290
0 0 -818z"/>
</g>
</svg>
